<svg
      width="164"
      height="246"
      viewBox="0 0 164 246"
      fill="none"
      xmlns="http://www.w3.org/2000/svg"
    >
      <circle cx="123" cy="123" r="41" fill="#1ABCFE" />
      <path
        d="M82 41C82 18.3564 100.356 9.69488e-06 123 1.16745e-05C145.644 1.3654e-05 164 18.3564 164 41C164 63.6437 145.644 82 123 82C100.356 82 82 63.6437 82 41Z"
        fill="#FF7262"
      />
      <path
        d="M123 82L82 82.0001L82 41L82 8.09012e-06L123 1.16745e-05L123 82Z"
        fill="#FF7262"
      />
      <path
        d="M123 1.16745e-05C100.356 9.69488e-06 82 18.3564 82 41L82 8.09012e-06L123 1.16745e-05Z"
        fill="#FF7262"
      />
      <path
        d="M82 41.0001C82 63.6438 63.6437 82.0001 41 82.0001C18.3563 82.0001 0 63.6438 0 41.0001C0 18.3564 18.3563 9.00595e-05 41 9.00595e-05C63.6437 9.00595e-05 82 18.3564 82 41.0001Z"
        fill="#F24E1E"
      />
      <path
        d="M41 9.00595e-05L82 5.74508e-05V41.0001V82.0001H41V9.00595e-05Z"
        fill="#F24E1E"
      />
      <path
        d="M41 82.0001C63.6437 82.0001 82 63.6438 82 41.0001V82.0001H41Z"
        fill="#F24E1E"
      />
      <path
        d="M82 123C82 145.644 63.6437 164 41 164C18.3563 164 0 145.644 0 123C0 100.356 18.3563 82 41 82C63.6437 82 82 100.356 82 123Z"
        fill="#A259FF"
      />
      <path d="M41 82L82 82V123V164H41V82Z" fill="#A259FF" />
      <path d="M41 164C63.6437 164 82 145.644 82 123V164H41Z" fill="#A259FF" />
      <path
        d="M82 205C82 227.644 63.6437 246 41 246C18.3563 246 0 227.644 0 205C0 182.356 18.3563 164 41 164C63.6437 164 82 182.356 82 205Z"
        fill="#0ACF83"
      />
      <path d="M41 164L82 164V205L68.9466 235L41 246V164Z" fill="#0ACF83" />
      <path
        d="M41 246C63.6437 246 82 227.644 82 205L68.9466 235L41 246Z"
        fill="#0ACF83"
      />
    </svg>